<svg width="14" height="45" viewBox="0 0 14 45" fill="none" xmlns="http://www.w3.org/2000/svg">
<path d="M4.22268 43.9375C4.41794 44.1328 4.73452 44.1328 4.92979 43.9375L8.11177 40.7555C8.30703 40.5603 8.30703 40.2437 8.11177 40.0484C7.9165 39.8531 7.59992 39.8531 7.40466 40.0484L4.57623 42.8768L1.74781 40.0484C1.55254 39.8531 1.23596 39.8531 1.0407 40.0484C0.845437 40.2437 0.845437 40.5603 1.0407 40.7555L4.22268 43.9375ZM4.07623 0.272156L4.07623 43.5839H5.07623L5.07623 0.272156L4.07623 0.272156Z" fill="#6C63FF"/>
<path d="M10.6169 9.49649C10.6306 9.41446 10.6374 9.32559 10.6374 9.22989C10.6374 8.87442 10.486 8.63321 10.1833 8.50626H7.93329V7.96426H11.1032V8.49161L10.737 8.5004C11.0202 8.67813 11.1618 8.93008 11.1618 9.25626C11.1618 9.36172 11.1481 9.4418 11.1208 9.49649H10.6169ZM7.87469 11.2543C7.87469 10.8246 8.01532 10.475 8.29657 10.2055C8.57977 9.93594 8.9577 9.80118 9.43036 9.80118H9.52997C9.84442 9.80118 10.1247 9.86075 10.3708 9.97989C10.6188 10.101 10.8122 10.269 10.9509 10.4838C11.0915 10.7006 11.1618 10.935 11.1618 11.1869C11.1618 11.599 11.0261 11.9193 10.7546 12.1479C10.4831 12.3764 10.0944 12.4906 9.58856 12.4906H9.36298V10.3432C9.05048 10.351 8.79755 10.4418 8.60419 10.6156C8.41278 10.7914 8.31708 11.0141 8.31708 11.2836C8.31708 11.475 8.35614 11.6371 8.43427 11.7699C8.51239 11.9027 8.61591 12.019 8.74481 12.1186L8.487 12.4496C8.0788 12.184 7.87469 11.7856 7.87469 11.2543ZM10.7165 11.1869C10.7165 10.9682 10.6364 10.7846 10.4763 10.6361C10.3181 10.4877 10.0954 10.3959 9.80829 10.3607V11.9486H9.8493C10.1247 11.933 10.3376 11.8588 10.488 11.726C10.6403 11.5932 10.7165 11.4135 10.7165 11.1869ZM7.93329 15.0775C7.99579 15.0463 8.10712 15.0209 8.26727 15.0014C8.00555 14.7494 7.87469 14.4486 7.87469 14.099C7.87469 13.7865 7.96259 13.5297 8.13837 13.3285C8.3161 13.1293 8.54071 13.0297 8.81219 13.0297C9.14227 13.0297 9.39813 13.1547 9.57977 13.4047C9.76337 13.6566 9.85516 14.0102 9.85516 14.4652V14.9926H10.1042C10.2936 14.9926 10.444 14.9359 10.5554 14.8227C10.6686 14.7094 10.7253 14.5424 10.7253 14.3217C10.7253 14.1283 10.6765 13.9662 10.5788 13.8354C10.4811 13.7045 10.363 13.6391 10.2243 13.6391V13.0941C10.3825 13.0941 10.5349 13.1498 10.6813 13.2611C10.8298 13.3744 10.947 13.5268 11.0329 13.7182C11.1188 13.9115 11.1618 14.1234 11.1618 14.3539C11.1618 14.7191 11.07 15.0053 10.8864 15.2123C10.7048 15.4193 10.4538 15.5268 10.1335 15.5346H8.6745C8.38348 15.5346 8.15204 15.5717 7.98016 15.6459H7.93329L7.93329 15.0775ZM8.34637 14.1781C8.34637 14.3481 8.39032 14.5092 8.47821 14.6615C8.5661 14.8139 8.68036 14.9242 8.82098 14.9926H9.47137V14.5678C9.47137 13.9037 9.27704 13.5717 8.88837 13.5717C8.71844 13.5717 8.58563 13.6283 8.48993 13.7416C8.39423 13.8549 8.34637 14.0004 8.34637 14.1781ZM9.54462 16.2523C10.0309 16.2523 10.4216 16.3676 10.7165 16.5981C11.0134 16.8285 11.1618 17.1303 11.1618 17.5033C11.1618 17.8744 11.0349 18.1684 10.7809 18.3852H12.4333V18.9272H7.93329V18.4291L8.27313 18.4027C8.00751 18.1859 7.87469 17.8842 7.87469 17.4975C7.87469 17.1303 8.02509 16.8305 8.32587 16.5981C8.62665 16.3676 9.01923 16.2523 9.5036 16.2523H9.54462ZM9.48309 16.7943C9.12372 16.7943 8.84247 16.8686 8.63934 17.017C8.43622 17.1654 8.33466 17.3705 8.33466 17.6322C8.33466 17.976 8.48895 18.227 8.79755 18.3852H10.2536C10.5524 18.2231 10.7018 17.974 10.7018 17.6381C10.7018 17.3725 10.5993 17.1654 10.3942 17.017C10.1891 16.8686 9.88544 16.7943 9.48309 16.7943ZM11.1032 21.769L10.7516 21.7836C11.0251 22.016 11.1618 22.3295 11.1618 22.724C11.1618 23.1674 10.9919 23.4691 10.652 23.6293C10.8044 23.7348 10.9274 23.8715 11.0212 24.0395C11.1149 24.2094 11.1618 24.4096 11.1618 24.64C11.1618 25.3354 10.7936 25.6889 10.0573 25.7006H7.93329V25.1586H10.0251C10.2516 25.1586 10.4206 25.1068 10.5319 25.0033C10.6452 24.8998 10.7018 24.726 10.7018 24.4818C10.7018 24.2807 10.6413 24.1137 10.5202 23.9809C10.4011 23.8481 10.2399 23.7709 10.0368 23.7494H7.93329V23.2045H10.0104C10.4714 23.2045 10.7018 22.9789 10.7018 22.5277C10.7018 22.1723 10.5505 21.9291 10.2477 21.7982H7.93329V21.2563H11.1032V21.769ZM9.54755 26.3773C9.85809 26.3773 10.1374 26.4379 10.3854 26.559C10.6335 26.682 10.8249 26.852 10.9597 27.0688C11.0944 27.2875 11.1618 27.5365 11.1618 27.8158C11.1618 28.2475 11.0124 28.5961 10.7136 28.8617C10.4147 29.1293 10.0173 29.2631 9.52118 29.2631H9.48309C9.1745 29.2631 8.89716 29.2035 8.65106 29.0844C8.40692 28.9672 8.21649 28.7982 8.07977 28.5775C7.94305 28.3588 7.87469 28.1068 7.87469 27.8217C7.87469 27.392 8.02411 27.0434 8.32294 26.7758C8.62177 26.5102 9.01727 26.3773 9.50946 26.3773H9.54755ZM9.48309 26.9223C9.13153 26.9223 8.8493 27.0033 8.63641 27.1654C8.42352 27.3295 8.31708 27.5482 8.31708 27.8217C8.31708 28.0971 8.4245 28.3158 8.63934 28.4779C8.85614 28.64 9.15887 28.7211 9.54755 28.7211C9.8952 28.7211 10.1765 28.6381 10.3913 28.4721C10.6081 28.308 10.7165 28.0893 10.7165 27.8158C10.7165 27.5482 10.61 27.3324 10.3972 27.1684C10.1843 27.0043 9.87958 26.9223 9.48309 26.9223ZM10.6169 31.475C10.6306 31.393 10.6374 31.3041 10.6374 31.2084C10.6374 30.8529 10.486 30.6117 10.1833 30.4848H7.93329V29.9428H11.1032V30.4701L10.737 30.4789C11.0202 30.6566 11.1618 30.9086 11.1618 31.2348C11.1618 31.3402 11.1481 31.4203 11.1208 31.475H10.6169ZM7.87469 33.2328C7.87469 32.8031 8.01532 32.4535 8.29657 32.184C8.57977 31.9145 8.9577 31.7797 9.43036 31.7797H9.52997C9.84442 31.7797 10.1247 31.8393 10.3708 31.9584C10.6188 32.0795 10.8122 32.2475 10.9509 32.4623C11.0915 32.6791 11.1618 32.9135 11.1618 33.1654C11.1618 33.5775 11.0261 33.8979 10.7546 34.1264C10.4831 34.3549 10.0944 34.4691 9.58856 34.4691H9.36298V32.3217C9.05048 32.3295 8.79755 32.4203 8.60419 32.5941C8.41278 32.7699 8.31708 32.9926 8.31708 33.2621C8.31708 33.4535 8.35614 33.6156 8.43427 33.7484C8.51239 33.8813 8.61591 33.9975 8.74481 34.0971L8.487 34.4281C8.0788 34.1625 7.87469 33.7641 7.87469 33.2328ZM10.7165 33.1654C10.7165 32.9467 10.6364 32.7631 10.4763 32.6147C10.3181 32.4662 10.0954 32.3744 9.80829 32.3393V33.9272H9.8493C10.1247 33.9115 10.3376 33.8373 10.488 33.7045C10.6403 33.5717 10.7165 33.392 10.7165 33.1654Z" fill="#6C63FF"/>
</svg>
